<svg width="226" height="63" viewBox="0 0 226 63" fill="none" xmlns="http://www.w3.org/2000/svg">
<rect x="-0.00012207" y="61" width="16.0083" height="2" fill="#E8E8E8"/>
<rect x="16.0082" y="58" width="12.2417" height="5" fill="#E8E8E8"/>
<rect x="30.1332" y="53" width="12.2417" height="10" fill="#E8E8E8"/>
<rect x="44.2582" y="51" width="12.2417" height="12" fill="#E8E8E8"/>
<rect x="58.3832" y="42" width="12.2417" height="21" fill="#E8E8E8"/>
<rect x="72.5082" y="13" width="12.2417" height="50" fill="#E8E8E8"/>
<rect x="86.6332" width="12.2417" height="63" fill="#E8E8E8"/>
<rect x="100.758" y="6" width="12.2417" height="57" fill="#E8E8E8"/>
<rect x="114.883" y="25" width="12.2417" height="38" fill="#E8E8E8"/>
<rect x="129.008" y="43" width="12.2417" height="20" fill="#E8E8E8"/>
<rect x="143.133" y="36" width="12.2417" height="27" fill="#E8E8E8"/>
<rect x="157.258" y="50" width="12.2417" height="13" fill="#E8E8E8"/>
<rect x="171.383" y="53" width="12.2417" height="10" fill="#E8E8E8"/>
<rect x="185.508" y="57" width="12.2417" height="6" fill="#E8E8E8"/>
<rect x="199.633" y="57" width="12.2417" height="6" fill="#E8E8E8"/>
<rect x="213.758" y="58" width="12.2417" height="5" fill="#E8E8E8"/>
</svg>
